<svg id="prefix__Layer_1" data-name="Layer 1" xmlns="http://www.w3.org/2000/svg" viewBox="0 0 176.7 45"><defs><style>.prefix__cls-1,.prefix__cls-3{fill:#e4cb90}.prefix__cls-1,.prefix__cls-2{fill-rule:evenodd}.prefix__cls-2{fill:#9da6af}</style></defs><path class="prefix__cls-1" d="M119.3 11.7c-2.1-.8-2.4-5.7 0-6.7 2.2 1.2 2 5.9 0 6.7zM117.5.1h-4.7c.2 1.3.5 1.1.5 2.9v7.1c0 1.8-.4 1.7-.5 3.1h2.3c1.1-.2.4-.4 1.5-.7 3.2 2.3 7.9.8 8.5-3.1s-3.1-6.6-7.4-5.7zM57.5.4c0 1.2.4 1.2.4 2.9.1 3.5.2 7.1-.6 10.2h5.5c-.4-1.9-1.8-8.2 1.1-8s1.4 6.5 1 8h5.5a10.9 10.9 0 01-.6-4.2c.1-4.5-1.3-6.8-7.6-5.1V.4zM25 4.2c-.5-.7-.3-2.3-.3-3.7H20c.8 2.4.5 3.7.5 6.5 0 4.8.3 2.4-.5 6.4h5.4c-.3-1.4-1.7-7.9 1-8s1.6 6.2 1.1 8H33a12.9 12.9 0 01-.6-4.2c0-1.5.1-3-.6-4s-4.3-2-6.8-1zM163.8 3.9c-.1 1.2.3 1 .5 2.1v5.5c-.2 1-.4 1-.6 2h5.4c-.4-1.6-1.9-8.7 1.4-8s1.2 6.2.7 8h5.5a11.7 11.7 0 01-.6-4.7c0-1.8 0-3-1-3.9a6.3 6.3 0 00-7.6-.1c-1.8-1-.7-.9-3.7-.9zM156.8 8.1a11.3 11.3 0 010 2.6c-.2 1.1-1 1.2-1.8.4s.5-2.7 1.8-3zm-3.4-.8c.3-3.4 3-3.4 3.4-.9zm-2.7 0l1.8.4h-.1a4.7 4.7 0 00-1.9 1.8c-1.4 2.7 1.2 5.6 7.5 2.8 1.6.9 1 .9 3.7.7a9.3 9.3 0 01-.5-2.1c-.5-5.9 2-8.8-10.6-7.3zM97.4 5.2c2.5-2 3.6 4.9 1.6 6.4s-4.3-4.1-1.6-6.4zM92 9.1c.9 6.4 13.2 5.6 12.2-1.4S91 2.2 92 9.1zM132.2 5.2c2.5-1.8 3.6 5.4 1.2 6.5s-3.6-4.8-1.2-6.5zm6.6 4.4c1-3.3-1.8-5.7-4.6-6.2s-6.6 1.2-7.3 3.6c-2 6.8 10 9.1 11.9 2.6zM11.4 5.2c.4-.7 1.4-.5 1.9-.1a2.9 2.9 0 01.9 2.1l2.5-.2V3.7c-2-.5-8.3-1.3-9.3 1.7s4.6 3.7 5.2 6c-1.8 1.6-2.8.1-3.1-1.8H7V13c2.5.5 8.6 1.3 9.7-1.6s-4.7-4-5.3-6.2zM48.8 5c.3-.3 2.3-1.1 2.8 2.2l2.3-.2V3.7a52.9 52.9 0 00-5.6-.5 4 4 0 00-3.6 2.3c-1.3 3.8 4.8 3.7 5.2 6.1-2.1 1.3-2.6-.2-3.2-2h-2.3v3.6c3.3 0 8.7 1.3 9.8-1.9s-2.3-3.8-4.1-4.7-1.3-.3-1.3-1.6z"/><path class="prefix__cls-2" d="M134.4 31.8c-1.2.4-.6.2-1.7-.4l-.7-.4c.5-.7 1.2-.4 1.7-.2h.7a7.4 7.4 0 01-2.1-1.5 1.6 1.6 0 00-2.3-.2c-1.3.7-.7 1.2-.7 2.2s-.6.9.6 2.4c-.4.2-.5 0-.4.8s1.8 1.3 2.8.4 1.1-.4 1.8-1 .3-1.3.3-2.1zM.8 21.8c.4-1.6 1.9-4.1.4-6.5L0 13.8c3.9-.6 5.5 1.9 6.9 4.1a25.5 25.5 0 013 8.3z"/><path class="prefix__cls-1" d="M140.6 3.8c-.1 1.7.2.9.5 1.8s-.3 4.8.5 6.3 4.9 2.2 6.7.7l-.2-1.1c-2.2-.1-2.5.7-2.5-1.9a30.9 30.9 0 01.1-4.3c2.2-.1 2 .2 2.1-.6s-1.5-1.1-2.2-1.1V1.1c-2.4 0-1.4.3-2.6 1.6s-1.5.5-2.4 1.1z"/><path class="prefix__cls-2" d="M145.2 26c-.4-.5-.3-.2-.9-.5s-1.7-1.5-3-.8-.3 1-.6 2 0 .7-.1 2.3a1.6 1.6 0 001.3 1.6c1.1.4 1.3-.2 2-.8s1.5-.8 1.6-1.5a4.5 4.5 0 00-.3-2.3z"/><path class="prefix__cls-1" d="M82.2 4c0 .9.3 1 .4 2a20.8 20.8 0 010 2.5c0 4.2.2 1.6-.5 5h5.4c-.5-2.1-1.1-5.2-.4-7.7l3.4 1V3.7a5.8 5.8 0 00-4.6 1c-1.7-1-1.4-.8-3.7-.7zM78.3 3.9h-4.7c0 1.1 1.2 3.4-.1 9.6h5.4a13.9 13.9 0 01-.5-4.7 40.5 40.5 0 00-.1-4.9zM41 3.9h-4.9a19.5 19.5 0 010 9.6h5.5c-1-3.4-.5-5.4-.6-9.6z"/><path class="prefix__cls-1" d="M36.5 2.2c.4 2 5.1 1.9 4.6-.8s-5-1.8-4.6.8zM73.9 2.2c.4 2 5.1 1.8 4.6-.8s-5-1.6-4.6.8z"/><path class="prefix__cls-2" d="M134.9 34.3a1.8 1.8 0 002.5 0c0-1.7-2.9-2.3-2.5 0zM135.5 36a3.6 3.6 0 00-1.3-1.1.9.9 0 00-1.4.7c0 1.2 2.3 1.7 2.7.4zM135.3 27.7a2.5 2.5 0 00-1.5-.2c-.6.2-.7.4-.9 1.2s.9 1 1.5.6zM136.1 31.7h-.1l-.5-.4a1.3 1.3 0 011.4-.5V31.4c.5-.1.5 0 .7-.5a2 2 0 00-2.4-1 1 1 0 00.9 1.8zM154.2 33.6c-1.2.3-.6.2-1.7-.5l-.7-.3c.5-.7 1.1-.4 1.6-.3s.4.2.7.1a13 13 0 01-2-1.5c-.9-.9-1.4-.7-2.3-.3S149 32 149 33s-.6 1 .7 2.5c-.4.2-.6-.1-.5.7s1.9 1.3 2.8.5 1.1-.5 1.8-1 .3-1.4.4-2.1zM154.6 36a2 2 0 002.5.1c0-1.8-2.8-2.3-2.5-.1zM155.2 37.8a2.4 2.4 0 00-1.3-1.1.8.8 0 00-1.3.7c-.1 1.1 2.2 1.6 2.6.4zM155 29.5a2.4 2.4 0 00-1.5-.2c-.6.1-.6.4-.9 1.1s.9 1 1.5.7zM155.8 33.4h-.1l-.5-.5a1.5 1.5 0 011.4-.5v.7c.5-.1.4 0 .7-.5a2 2 0 00-2.4-1c-.9.7-.4 2.1.9 1.8zM6.9 15.7l.7-1.7.3-.5c1.2 1.4 2.4 3.6 1 5.8zM148.2 25.3c-.7-.6-3-.6-2.2 1s2.3.2 2.2-1zM146 29.4a1.8 1.8 0 002.4-.8c-.6-1.3-3.3-1-2.4.8zM143.9 23.8c0 2.1 1.9 1 2.5 0s-.3-.6-1-.6a2.5 2.5 0 00-1.5.6zM146.2 31c-.3-.6-.6-1-1.1-1a.9.9 0 00-.9 1.2c.4.9 2.8.9 2-.2zM162.2 25.3c-.4-.5-.4-.3-.9-.6s-1.7-1.4-3-.7-.4 1-.6 1.9-.1.7-.1 2.4.7 1.3 1.3 1.5 1.3-.1 1.9-.8 1.5-.8 1.6-1.4a4.3 4.3 0 00-.2-2.3zM165.1 24.6c-.6-.6-3-.6-2.1 1s2.2.1 2.1-1zM163 28.6a1.7 1.7 0 002.3-.7c-.5-1.3-3.2-1.1-2.3.7zM160.8 23c.1 2.2 2 1.1 2.5.1s-.3-.6-.9-.6a3.4 3.4 0 00-1.6.5zM163.2 30.2c-.4-.5-.6-1-1.2-.9a.7.7 0 00-.8 1.1c.3.9 2.7.9 2-.2zM27.6 42c.5-.1.4-.2.4.3s-.4-.1-.4-.3zm-2.1-3.7v-4.7c-3-1.2-6.1 1.1-6.8 3-.2.2-.1.3-.2.5l-.4 1.4a5.8 5.8 0 002.6 5.5 5.9 5.9 0 009.1-4.7c0-1.4-.2-1-4.3-1z"/><path class="prefix__cls-3" d="M33.1 34.7l.8 1.9h-6.8l.7-1.9V24.2c0-3.2 2-4.7 5-4.7H37a.2.2 0 01.2.2v4.2a.2.2 0 01-.2.2h-2.9a.2.2 0 01-.2-.2v-1.3a1.8 1.8 0 00-1.7-1.5 1.7 1.7 0 00-1.6 1.8 1.7 1.7 0 001.6 1.7h3.1a.2.2 0 01.2.2v1.7a.2.2 0 01-.2.2h-2.2zM41.7 37.2a3.3 3.3 0 01-2-.8 2.5 2.5 0 01-1-1.5 3.3 3.3 0 01.1-2.4 4.6 4.6 0 011.8-2.1 11.8 11.8 0 012.8-1.2l3.4-1a2.7 2.7 0 00-.5-1.5 2 2 0 00-1.2-.8 2.5 2.5 0 00-1.8.6 4.4 4.4 0 00-.9 2.7c0 .1 0 .2-.1.2h-3a.2.2 0 01-.2-.2v-4.4a.2.2 0 01.2-.2h2.4a18.3 18.3 0 014-.5c1.7 0 3.9.3 5.2 1.6a4.7 4.7 0 011.2 3.2v5.8l.7 1.9h-3.5l-1.1-1.2a8.9 8.9 0 01-6.5 1.8zm5.1-7a4.4 4.4 0 00-1.9 1 1.7 1.7 0 00-.7 1.4 2.2 2.2 0 00.2 1.4 1.3 1.3 0 001.6.8 1.6 1.6 0 00.8-.6zM56 26.7l-.8-1.8v-.2h3.6l1.1 1.1a5.8 5.8 0 014.5-1.7h1.2a6.2 6.2 0 014.3 2.2 4.8 4.8 0 01.7 2.4v5.9l.7 1.9c.1 0 .1.1 0 .1h-6.7a.1.1 0 01-.1-.1l.8-1.9v-6.1a2 2 0 10-4 0v6.2l.7 1.9c.1 0 0 .1 0 .1h-6.7a.1.1 0 01-.1-.1l.8-1.9zM76.6 36.8h-2.7a.2.2 0 01-.2-.2v-4.1a.2.2 0 01.2-.2h2.6a.2.2 0 01.2.2 3.2 3.2 0 00.8 2.3 2.2 2.2 0 001.9.6 2 2 0 00.8-.4.7.7 0 00.4-.5c.1-.5-.5-.9-.8-1.1l-1.3-.7-1.6-.8c-1.5-.8-3-2-3-3.9a3.6 3.6 0 01.2-1.1 4.1 4.1 0 011.9-2 5.5 5.5 0 013.1-.8 10.2 10.2 0 013.5.5h2.7a.2.2 0 01.2.2v4.1a.2.2 0 01-.2.2h-2.6c-.1 0-.2 0-.2-.1a3.6 3.6 0 00-.5-2.1 2.1 2.1 0 00-1.1-.8 2.4 2.4 0 00-1.2 0c-.3.1-.6.3-.6.6s.4 1 .8 1.3l1.4.7 1.6.9c1.3.8 3 2 3 3.8s-3.4 3.9-5.6 3.9h-2.1zM95.1 36.6a.1.1 0 01-.1.1h-6.7c-.1 0-.1-.1 0-.1l.7-1.9v-8.2l-.7-1.6c-.1-.1-.1-.2 0-.2h5.8a.2.2 0 01.2.2v9.9zm-3.4-17.1a3.2 3.2 0 011.8.6 2.2 2.2 0 011 1.3v.9a2.6 2.6 0 01-1 1.3 4.1 4.1 0 01-1.8.5 4.1 4.1 0 01-1.9-.5 3.2 3.2 0 01-1-1.3v-.9a2.7 2.7 0 011-1.3 3.3 3.3 0 011.9-.6zM97.6 26.7a.2.2 0 01-.2-.2v-1.7a.2.2 0 01.2-.2 4.3 4.3 0 003.2-1.4 3.5 3.5 0 00.6-1.4c0-.1 0-.1.1-.1l1.9-.4h.2v3.2h2.6a.2.2 0 01.2.2v1.7a.2.2 0 01-.2.2h-2.6v6.9a1.5 1.5 0 00.4 1.1 1.5 1.5 0 00.9.2 5.8 5.8 0 001.4-.3c.1-.1.1-.1.2 0h.1l.4 1.4c0 .1 0 .2-.1.2l-.8.4a10 10 0 01-3 .6c-2.2 0-4.7-.9-4.7-3.6v-7zM117.6 33.2a6.8 6.8 0 002-.2 8.2 8.2 0 002.6-1l.5-.3h.2v.7a8.7 8.7 0 01-.7 1.7 7.3 7.3 0 01-6.2 3.2 7.4 7.4 0 01-6.4-3.6 6 6 0 01-.7-3 6.3 6.3 0 01.7-3 7.4 7.4 0 016.4-3.6 7.3 7.3 0 015.5 2.3 6 6 0 011.2 3.2c0 1.5-.6 1.5-2 1.5h-6.9a4.5 4.5 0 003.8 2.1zm-4.4-4.2h5.2v-.2a2.6 2.6 0 10-5.2 0z"/></svg>