<?xml version="1.0" standalone="no"?>
<!DOCTYPE svg PUBLIC "-//W3C//DTD SVG 20010904//EN"
 "http://www.w3.org/TR/2001/REC-SVG-20010904/DTD/svg10.dtd">
<svg version="1.0" xmlns="http://www.w3.org/2000/svg"
 width="480.000000pt" height="360.000000pt" viewBox="0 0 480.000000 360.000000"
 preserveAspectRatio="xMidYMid meet">

<g transform="translate(0.000000,360.000000) scale(0.100000,-0.100000)"
fill="#000000" stroke="none">
<path d="M1553 2264 c6 -76 34 -132 89 -177 23 -20 40 -39 36 -42 -8 -9 -67
26 -93 55 -22 24 -63 26 -72 4 -5 -13 -16 -14 -68 -9 l-62 7 -6 -108 c-4 -59
-7 -133 -7 -166 0 -58 0 -58 -30 -58 l-30 0 0 -80 c0 -79 0 -80 25 -80 23 0
25 -4 25 -42 l0 -43 102 1 103 2 -92 -7 c-50 -3 -95 -9 -99 -13 -4 -4 15 -5
42 -2 27 3 74 1 104 -4 53 -9 51 -9 -41 -9 -53 0 -101 -3 -108 -7 -6 -4 -11
-23 -11 -42 l0 -34 330 0 330 0 0 40 c0 33 -3 40 -20 40 -16 0 -20 7 -20 35 0
30 3 35 24 35 l24 0 6 238 c4 130 9 254 11 275 l5 37 -95 0 c-167 0 -288 56
-378 175 l-30 40 6 -61z m329 -301 c36 -38 49 -46 61 -34 6 6 18 11 28 11 12
0 15 -6 12 -25 -3 -13 -10 -23 -16 -22 -7 1 -13 -8 -15 -19 -4 -28 -48 -38
-58 -15 -10 21 -21 -84 -23 -211 0 -53 -5 -100 -11 -103 -5 -3 -82 -3 -170 1
l-160 7 0 28 0 29 120 0 c115 0 122 1 145 25 17 16 25 35 25 58 0 56 -19 64
-160 72 l-125 7 3 69 4 69 126 0 c111 0 124 2 106 14 -10 8 -16 17 -13 20 8 8
61 9 89 0 25 -7 25 -7 6 14 -15 17 -16 22 -5 22 8 0 22 -8 31 -17z"/>
<path d="M3030 2019 l0 -89 -55 0 -55 0 0 -65 0 -65 50 0 50 0 0 -105 c0 -87
3 -105 15 -105 12 0 15 -13 15 -59 0 -58 1 -59 31 -65 17 -3 64 -6 104 -6 l72
0 1 58 c1 31 4 110 8 175 l7 118 78 -7 79 -7 0 32 c0 29 -2 31 -37 32 l-38 1
33 8 c18 4 36 11 40 15 4 4 -3 4 -15 1 -13 -4 -31 -3 -40 3 -15 8 -11 10 20
11 26 0 37 4 37 15 0 12 -15 15 -75 15 l-75 0 0 90 0 91 -125 -2 -125 -2 0
-88z"/>
<path d="M3450 1770 c0 -6 -27 -10 -60 -10 l-60 0 0 -59 0 -59 105 -7 c79 -6
105 -11 105 -21 0 -11 17 -14 70 -14 l70 0 0 45 c0 34 -5 48 -20 57 -24 15
-27 58 -5 58 8 0 15 5 15 10 0 6 -43 10 -110 10 -67 0 -110 -4 -110 -10z"/>
<path d="M3330 1552 c0 -34 11 -52 34 -53 16 -1 17 -2 4 -6 -15 -4 -14 -7 5
-30 50 -58 140 -71 211 -30 40 22 97 109 82 125 -4 3 -81 8 -172 10 -159 4
-164 3 -164 -16z"/>
<path d="M1708 1352 c-15 -3 -18 -14 -18 -63 0 -52 2 -59 20 -59 16 0 20 7 20
35 0 19 5 35 10 35 6 0 10 -16 10 -35 0 -28 4 -35 20 -35 17 0 20 7 20 39 0
40 -16 56 -44 45 -10 -4 -16 2 -18 18 -2 16 -8 22 -20 20z"/>
<path d="M1820 1345 c0 -9 5 -15 11 -13 6 2 11 8 11 13 0 5 -5 11 -11 13 -6 2
-11 -4 -11 -13z"/>
<path d="M2008 1352 c-15 -3 -18 -14 -18 -63 0 -52 2 -59 20 -59 16 0 20 7 20
35 0 19 5 35 10 35 6 0 10 -16 10 -35 0 -28 4 -35 20 -35 17 0 20 7 20 39 0
40 -16 56 -44 45 -10 -4 -16 2 -18 18 -2 16 -8 22 -20 20z"/>
<path d="M2126 1351 c-4 -5 -2 -12 3 -15 5 -4 12 -2 15 3 4 5 2 12 -3 15 -5 4
-12 2 -15 -3z"/>
<path d="M2487 1352 c-15 -3 -17 -12 -15 -60 3 -56 3 -57 36 -60 40 -4 62 12
62 44 0 24 -26 45 -47 37 -6 -2 -13 6 -15 19 -2 16 -8 22 -21 20z m43 -77 c0
-14 -4 -25 -10 -25 -5 0 -10 11 -10 25 0 14 5 25 10 25 6 0 10 -11 10 -25z"/>
<path d="M2725 1338 c-4 -10 -13 -18 -21 -18 -18 0 -7 -60 14 -77 21 -17 51
-18 34 -1 -16 16 -15 58 1 58 8 0 9 2 1 8 -7 4 -14 16 -16 27 -4 18 -6 18 -13
3z"/>
<path d="M1460 1325 c6 -8 9 -22 6 -32 -5 -14 2 -23 27 -34 l33 -15 1 48 c0
26 -3 45 -8 43 -4 -3 -5 -13 -2 -23 6 -13 1 -12 -21 6 -32 25 -55 30 -36 7z"/>
<path d="M3056 1324 c-4 -9 -4 -19 -1 -22 2 -3 7 3 11 12 4 9 4 19 1 22 -2 3
-7 -3 -11 -12z"/>
<path d="M3097 1328 c-9 -7 -23 -29 -31 -50 l-16 -36 39 15 c30 12 37 19 34
34 -3 11 0 26 7 34 10 12 10 15 -2 15 -8 0 -22 -6 -31 -12z"/>
<path d="M1589 1310 c-11 -6 -16 -21 -15 -42 2 -32 3 -33 46 -33 38 0 45 3 45
20 0 12 -8 21 -20 23 -11 2 -24 9 -30 14 -7 7 -1 9 18 4 29 -7 38 8 11 18 -21
8 -36 7 -55 -4z m39 -57 c2 -7 -4 -13 -13 -13 -9 0 -14 4 -11 9 4 5 0 12 -6
15 -7 3 -4 5 6 3 11 -1 21 -8 24 -14z"/>
<path d="M1823 1313 c-8 -2 -13 -22 -13 -44 0 -32 3 -39 20 -39 17 0 20 7 20
45 0 44 -3 48 -27 38z"/>
<path d="M1889 1310 c-11 -6 -16 -21 -15 -42 2 -32 3 -33 46 -33 38 0 45 3 45
20 0 12 -8 21 -20 23 -11 2 -24 9 -30 14 -7 7 -1 9 18 4 29 -7 38 8 11 18 -21
8 -36 7 -55 -4z m39 -58 c2 -7 -3 -12 -10 -12 -8 0 -15 7 -15 15 0 18 19 15
25 -3z"/>
<path d="M2123 1313 c-8 -2 -13 -22 -13 -44 0 -34 3 -39 23 -39 20 0 22 4 19
45 -4 45 -6 48 -29 38z"/>
<path d="M2190 1313 c-11 -3 -14 -14 -12 -47 3 -37 7 -43 23 -39 13 4 19 14
19 34 0 15 5 31 10 34 6 3 10 1 10 -5 0 -7 6 -10 13 -7 6 2 12 10 12 18 0 13
-41 20 -75 12z"/>
<path d="M2302 1313 c-41 -17 -32 -83 13 -83 40 0 55 11 55 39 0 42 -28 60
-68 44z m38 -44 c0 -10 -7 -19 -15 -19 -15 0 -21 31 -9 43 11 10 24 -3 24 -24z"/>
<path d="M2608 1309 c-21 -12 -24 -49 -6 -67 22 -22 67 -14 80 13 9 21 8 28
-7 45 -20 22 -41 25 -67 9z m42 -34 c0 -26 -14 -33 -25 -15 -9 14 1 40 15 40
5 0 10 -11 10 -25z"/>
<path d="M2791 1311 c-7 -5 -10 -14 -6 -20 4 -7 1 -18 -5 -26 -19 -22 -4 -33
45 -33 44 1 45 2 45 33 0 17 -5 36 -12 43 -14 14 -47 15 -67 3z m39 -15 c0 -3
-4 -8 -10 -11 -5 -3 -10 -1 -10 4 0 6 5 11 10 11 6 0 10 -2 10 -4z m0 -36 c0
-5 -4 -10 -10 -10 -5 0 -10 5 -10 10 0 6 5 10 10 10 6 0 10 -4 10 -10z"/>
<path d="M2903 1311 c-4 -3 -8 -23 -8 -44 0 -30 4 -37 20 -37 16 0 20 7 20 32
0 17 6 33 13 35 8 3 12 -7 12 -31 0 -29 4 -36 20 -36 16 0 20 7 20 34 0 19 -6
38 -12 43 -16 9 -74 12 -85 4z"/>
</g>
</svg>
