<svg id="prefix__Layer_1" data-name="Layer 1" xmlns="http://www.w3.org/2000/svg" viewBox="0 0 457.12 73.7"><defs><style>.prefix__cls-1{fill:none;stroke:#d1b48766;stroke-miterlimit:10;}</style></defs><path class="prefix__cls-1" d="M1.62 71.7c-.41 0-.62-.17-.62-.5l.25-68.7c0-.27.17-.4.5-.4h24q11.51 0 18.19 5.6t6.68 15.2a21.47 21.47 0 01-3.5 12.3 23.33 23.33 0 01-9.12 8A27.05 27.05 0 0125.75 46h-9.5v25.2c0 .33-.21.5-.63.5zm14.63-37.8h9.5a9.33 9.33 0 006.94-3 11 11 0 002.93-8A8.45 8.45 0 0033 16.5a10.08 10.08 0 00-7.25-2.5l-9.5.1zM62.37 71.7a.44.44 0 01-.5-.5l.25-68.7c0-.27.17-.4.5-.4h25.25a29 29 0 0112.44 2.65 23.65 23.65 0 019.06 7.1 16.23 16.23 0 013.38 10 15.51 15.51 0 01-1.38 6.65 20.36 20.36 0 01-6.62 8.05q6.75 6 6.75 14.1l.12 20.5c0 .33-.21.5-.62.5H96.87c-.33 0-.5-.1-.5-.3V50.7a7.93 7.93 0 00-3.18-6.25 11.81 11.81 0 00-7.82-2.65h-8.25L77 71.2a.44.44 0 01-.5.5zm14.75-41.9h10.75a11 11 0 006.88-2.3 6.67 6.67 0 00.06-11.1 10.94 10.94 0 00-6.94-2.3H77.12zM148.37 72.7a27.44 27.44 0 01-12.31-2.7 24.3 24.3 0 01-8.94-7.3 16.47 16.47 0 01-3.37-10l.12-31.7a16.46 16.46 0 013.32-10 23.34 23.34 0 018.93-7.2A28 28 0 01148.37 1a27.4 27.4 0 0112.25 2.7 23.65 23.65 0 018.82 7.2 16.52 16.52 0 013.31 10l.12 31.7a16.66 16.66 0 01-3.31 10 23.82 23.82 0 01-8.87 7.3 27.48 27.48 0 01-12.32 2.8zm0-12.1a9.72 9.72 0 006.57-2.45 7.24 7.24 0 002.81-5.55l-.13-31.7a7.17 7.17 0 00-2.62-5.6 9.71 9.71 0 00-6.63-2.3 10.11 10.11 0 00-6.62 2.25A7 7 0 00139 20.9v31.7a7.21 7.21 0 002.75 5.65 9.83 9.83 0 006.62 2.35zM206.62 72.7a28.79 28.79 0 01-12.56-2.65 21.59 21.59 0 01-8.75-7.3 18 18 0 01-3.19-10.45v-4.6c0-.27.17-.4.5-.4h14.13a.44.44 0 01.5.5v4.5a7.59 7.59 0 002.62 6 9.88 9.88 0 006.75 2.3 9.32 9.32 0 006.5-2.5 7.65 7.65 0 002.75-5.8V2.6c0-.27.17-.4.5-.4h14a.44.44 0 01.5.5l.13 49.6a17.12 17.12 0 01-3.32 10.15 23.84 23.84 0 01-8.81 7.45 26.58 26.58 0 01-12.25 2.8zM244.75 71.7a.44.44 0 01-.5-.5l.12-68.7c0-.27.17-.4.5-.4H285a.44.44 0 01.5.5v11.2c0 .27-.17.4-.5.4h-25.63v15.6H285c.33 0 .5.13.5.4l.12 11.3c0 .27-.17.4-.5.4h-25.75v17.5h25.75a.44.44 0 01.5.5v11.4c0 .27-.17.4-.5.4zM321.5 72.7a27.72 27.72 0 01-12.44-2.7 22.91 22.91 0 01-8.81-7.35A17.42 17.42 0 01297 52.3l.12-31.2a17.08 17.08 0 013.19-10 22.66 22.66 0 018.75-7.3 29.6 29.6 0 0124.81 0 23 23 0 018.75 7.2 17 17 0 013.25 10.15v4.6c0 .27-.17.4-.5.4h-14c-.33 0-.5-.13-.5-.4V21.1a7.38 7.38 0 00-2.69-5.7 9.66 9.66 0 00-6.68-2.4c-3 0-5.3.82-6.88 2.45a7.89 7.89 0 00-2.37 5.65v31.2a7.51 7.51 0 002.68 6 9.79 9.79 0 006.57 2.3 9.33 9.33 0 006.68-2.55 7.74 7.74 0 002.69-5.75v-4.6c0-.27.17-.4.5-.4h14.13c.33 0 .5.13.5.4v4.6a17.21 17.21 0 01-3.32 10.3 23.51 23.51 0 01-8.81 7.4 27.33 27.33 0 01-12.37 2.7zM369.75 71.7a.44.44 0 01-.5-.5v-57H353c-.42 0-.63-.17-.63-.5l.13-11.2c0-.27.16-.4.5-.4h47.5c.41 0 .62.13.62.4v11.2a.44.44 0 01-.5.5h-16.37l.12 57a.44.44 0 01-.5.5zM431.62 72.7a27.44 27.44 0 01-12.31-2.7 23.66 23.66 0 01-8.87-7.3 16.67 16.67 0 01-3.32-10V48c0-.33.21-.5.63-.5h14a.44.44 0 01.5.5v4.6a7.18 7.18 0 002.75 5.65 10.43 10.43 0 0013.25 0A7.26 7.26 0 00441 52.6q0-3.7-6-6.4l-6.25-2.8-8-3.6a24.37 24.37 0 01-10.19-8 18.93 18.93 0 01-3.31-10.95 16.22 16.22 0 013.37-10 23.35 23.35 0 018.94-7 29.32 29.32 0 0124.25 0 23.33 23.33 0 018.88 7.1 16.31 16.31 0 013.31 10V29c0 .27-.17.4-.5.4h-14c-.34 0-.5-.13-.5-.4l-.13-8.2a7 7 0 00-2.75-5.7 10.06 10.06 0 00-6.5-2.2 9.83 9.83 0 00-6.62 2.35 7.09 7.09 0 00-2.75 5.55 8.55 8.55 0 001.75 5.5c1.16 1.47 3.29 2.87 6.37 4.2.42.2 1.23.55 2.44 1.05s2.52 1.07 3.94 1.7 2.69 1.18 3.81 1.65 1.81.77 2.06.9a28.9 28.9 0 019.88 6.85 14.41 14.41 0 013.62 10 17 17 0 01-3.31 10.25 23 23 0 01-8.87 7.2 28.25 28.25 0 01-12.32 2.6z"/></svg>