<svg version="1.1" id="prefix__Layer_1" xmlns="http://www.w3.org/2000/svg" x="0" y="0" viewBox="0 0 423 213.4" xml:space="preserve"><style>.prefix__st0{enable-background:new}.prefix__st1{fill:none;stroke:#d1b48766;stroke-miterlimit:10}</style><g class="prefix__st0"><path class="prefix__st1" d="M26.8 86.3c-4.5 0-8.6-.9-12.3-2.8-3.7-1.8-6.7-4.3-8.9-7.3s-3.3-6.4-3.3-10.1v-4.6c0-.3.2-.5.6-.5h14c.3 0 .5.2.5.5v4.6c0 2.2.9 4.1 2.8 5.6 1.8 1.6 4 2.4 6.6 2.4 2.6 0 4.8-.8 6.6-2.4 1.8-1.6 2.8-3.5 2.8-5.6 0-2.5-2-4.6-6-6.4-1.3-.6-3.4-1.5-6.2-2.8-2.8-1.3-5.5-2.5-8-3.6-4.6-2.1-8-4.8-10.2-8.1-2.2-3.2-3.3-6.9-3.3-10.9 0-3.7 1.1-7.1 3.4-10.1 2.2-3 5.2-5.3 8.9-7 3.7-1.7 7.7-2.6 12.1-2.6 4.4 0 8.5.9 12.2 2.6 3.7 1.8 6.7 4.1 8.9 7.1s3.3 6.3 3.3 10v8.2c0 .3-.2.4-.5.4h-14c-.3 0-.5-.1-.5-.4l-.3-8.1c0-2.3-.9-4.2-2.8-5.7-1.8-1.5-4-2.2-6.5-2.2-2.6 0-4.8.8-6.6 2.3-1.8 1.6-2.8 3.4-2.8 5.6 0 2.2.6 4 1.8 5.5 1.2 1.5 3.3 2.9 6.4 4.2.4.2 1.2.6 2.4 1.1 1.2.5 2.5 1.1 3.9 1.7 1.4.6 2.7 1.2 3.8 1.7 1.1.5 1.8.8 2.1.9 4.2 1.9 7.5 4.1 9.9 6.9 2.4 2.7 3.6 6 3.6 9.9 0 3.8-1.1 7.2-3.3 10.2-2.2 3-5.2 5.4-8.9 7.2-3.6 1.7-7.8 2.6-12.2 2.6zM64.2 85.3c-.3 0-.5-.2-.5-.5l.1-68.7c0-.3.2-.4.6-.4h13.9c.4 0 .6.1.6.4l-.1 27.2h18.8V16.1c0-.3.2-.4.5-.4H112c.4 0 .6.1.6.4l.2 68.7c0 .3-.2.5-.6.5h-14c-.4 0-.6-.2-.6-.5V55.4H78.9v29.4c0 .3-.2.5-.5.5H64.2zM127.5 85.3c-.4 0-.6-.2-.6-.5l.1-68.7c0-.3.2-.4.5-.4h14c.3 0 .5.1.5.4l.1 68.7c0 .3-.2.5-.5.5h-14.1zM178.1 86.3c-4.5 0-8.6-.9-12.3-2.8-3.7-1.8-6.7-4.3-8.9-7.3s-3.3-6.4-3.3-10.1v-4.6c0-.3.2-.5.6-.5h14c.3 0 .5.2.5.5v4.6c0 2.2.9 4.1 2.8 5.6 1.8 1.6 4 2.4 6.6 2.4 2.6 0 4.8-.8 6.6-2.4 1.8-1.6 2.8-3.5 2.8-5.6 0-2.5-2-4.6-6-6.4-1.3-.6-3.4-1.5-6.2-2.8-2.8-1.3-5.5-2.5-8-3.6-4.6-2.1-8-4.8-10.2-8.1-2.2-3.2-3.3-6.9-3.3-10.9 0-3.7 1.1-7.1 3.4-10.1 2.2-3 5.2-5.3 8.9-7 3.7-1.7 7.7-2.6 12.1-2.6 4.4 0 8.5.9 12.2 2.6 3.7 1.8 6.7 4.1 8.9 7.1s3.3 6.3 3.3 10v8.2c0 .3-.2.4-.5.4h-14c-.3 0-.5-.1-.5-.4l-.1-8.2c0-2.3-.9-4.2-2.8-5.7-1.8-1.5-4-2.2-6.5-2.2-2.6 0-4.8.8-6.6 2.3-1.8 1.6-2.8 3.4-2.8 5.6 0 2.2.6 4 1.8 5.5 1.2 1.5 3.3 2.9 6.4 4.2.4.2 1.2.6 2.4 1.1 1.2.5 2.5 1.1 3.9 1.7 1.4.6 2.7 1.2 3.8 1.7 1.1.5 1.8.8 2.1.9 4.2 1.9 7.5 4.1 9.9 6.9 2.4 2.7 3.6 6 3.6 9.9 0 3.8-1.1 7.2-3.3 10.2-2.2 3-5.2 5.4-8.9 7.2-3.8 1.8-7.9 2.7-12.4 2.7zM215.6 85.3c-.3 0-.5-.2-.5-.5l.1-68.7c0-.3.2-.4.6-.4h13.9c.4 0 .6.1.6.4l-.1 27.2H249V16.1c0-.3.2-.4.5-.4h13.9c.4 0 .6.1.6.4l.2 68.7c0 .3-.2.5-.6.5h-14c-.4 0-.6-.2-.6-.5V55.4h-18.8v29.4c0 .3-.2.5-.5.5h-14.1zM278.9 85.3c-.4 0-.6-.2-.6-.5l.1-68.7c0-.3.2-.4.5-.4h14c.3 0 .5.1.5.4l.1 68.7c0 .3-.2.5-.5.5h-14.1z"/></g><g class="prefix__st0"><path class="prefix__st1" d="M305 85.3c-.3 0-.5-.2-.5-.5l.2-68.7c0-.3.2-.4.5-.4h25.2c4.5 0 8.6.9 12.4 2.6 3.8 1.8 6.8 4.1 9.1 7.1 2.2 3 3.4 6.3 3.4 10.1 0 2.5-.5 4.7-1.4 6.6-.9 2-2 3.6-3.2 5-1.2 1.4-2.4 2.4-3.4 3 4.5 4 6.8 8.7 6.8 14.1l.1 20.5c0 .3-.2.5-.6.5h-14.1c-.3 0-.5-.1-.5-.3V64.3c0-2.4-1.1-4.5-3.2-6.2-2.1-1.8-4.7-2.6-7.8-2.6h-8.2l-.1 29.4c0 .3-.2.5-.5.5H305zm14.7-41.9h10.8c2.6 0 4.9-.8 6.9-2.3 2-1.5 3-3.4 3-5.6 0-2.1-1-4-2.9-5.5-2-1.5-4.3-2.3-6.9-2.3h-10.8v15.7z"/></g><g class="prefix__st0"><path class="prefix__st1" d="M390.4 86.3c-4.5 0-8.6-.9-12.3-2.8-3.7-1.8-6.7-4.3-8.9-7.3s-3.4-6.4-3.4-10.1l.1-31.7c0-3.7 1.1-7 3.3-10 2.2-3 5.2-5.4 8.9-7.2s7.8-2.7 12.2-2.7c4.5 0 8.6.9 12.2 2.7 3.7 1.8 6.6 4.2 8.8 7.2 2.2 3 3.3 6.3 3.3 10l.1 31.7c0 3.7-1.1 7-3.3 10.1-2.2 3-5.2 5.5-8.9 7.3-3.5 1.9-7.6 2.8-12.1 2.8zm0-12.1c2.5 0 4.7-.8 6.6-2.4 1.9-1.6 2.8-3.5 2.8-5.6l-.1-31.7c0-2.2-.9-4.1-2.6-5.6-1.8-1.5-4-2.3-6.6-2.3-2.6 0-4.8.8-6.6 2.2-1.8 1.5-2.8 3.4-2.8 5.7v31.7c0 2.2.9 4.1 2.8 5.6 1.7 1.6 3.9 2.4 6.5 2.4z"/></g><g class="prefix__st0"><path class="prefix__st1" d="M6 182.3c-.3 0-.5-.2-.5-.5l.2-68.7c0-.3.2-.4.5-.4h24c4.8 0 9 .9 12.8 2.8 3.8 1.8 6.7 4.2 8.9 7.2s3.2 6.3 3.2 9.8c0 2.9-.8 5.5-2.4 8-1.6 2.5-3.6 4.5-5.8 6 2.4 1.9 4.3 4.2 5.6 6.7 1.3 2.5 2 5.2 2 8 0 3.9-1.2 7.4-3.5 10.6-2.3 3.2-5.5 5.8-9.4 7.6-4 1.9-8.4 2.9-13.2 2.9H6zm14.6-12.2h7.8c3 0 5.6-.9 7.8-2.7 2.2-1.8 3.2-3.8 3.2-6.2 0-2.4-1.1-4.5-3.2-6.2-2.2-1.7-4.8-2.6-7.8-2.6h-7.6l-.2 17.7zm.2-29.8h9.5c2.9 0 5.3-.8 7.1-2.5 1.8-1.6 2.7-3.4 2.7-5.3 0-2.1-1-4-2.9-5.6-1.9-1.6-4.2-2.3-6.9-2.3h-9.5v15.7z"/></g><g class="prefix__st0"><path class="prefix__st1" d="M89.8 183.3c-4.5 0-8.6-.9-12.3-2.8-3.7-1.8-6.7-4.3-8.9-7.3s-3.4-6.4-3.4-10.1l.1-31.7c0-3.7 1.1-7 3.3-10 2.2-3 5.2-5.4 8.9-7.2s7.8-2.7 12.2-2.7c4.5 0 8.6.9 12.2 2.7 3.7 1.8 6.6 4.2 8.8 7.2 2.2 3 3.3 6.3 3.3 10l.1 31.7c0 3.7-1.1 7-3.3 10.1-2.2 3-5.2 5.5-8.9 7.3-3.5 1.9-7.7 2.8-12.1 2.8zm0-12.1c2.5 0 4.7-.8 6.6-2.4 1.9-1.6 2.8-3.5 2.8-5.6l-.2-31.7c0-2.2-.9-4.1-2.6-5.6s-4-2.3-6.6-2.3c-2.6 0-4.8.8-6.6 2.2-1.8 1.5-2.8 3.4-2.8 5.7v31.7c0 2.2.9 4.1 2.8 5.7 1.8 1.5 4 2.3 6.6 2.3z"/></g><g class="prefix__st0"><path class="prefix__st1" d="M137.8 182.3c-.3 0-.5-.2-.5-.5v-57H121c-.4 0-.6-.2-.6-.5l.1-11.2c0-.3.2-.4.5-.4h47.5c.4 0 .6.1.6.4v11.2c0 .3-.2.5-.5.5h-16.4l.1 57c0 .3-.2.5-.5.5h-14z"/></g><g class="prefix__st0"><path class="prefix__st1" d="M168.4 181.8l15.5-68.7c.1-.3.3-.4.6-.4h18.1c.3 0 .5.1.6.4l14.9 68.7c.1.3-.1.5-.5.5h-13.9c-.3 0-.5-.2-.6-.5l-1.4-7.3h-17l-1.4 7.3c-.1.3-.3.5-.6.5h-13.9c-.3 0-.4-.2-.4-.5zm18.8-18h12l-5.1-28.1-.8-3.7-.5 3.7-5.6 28.1zM230.9 182.3c-.7 0-1-.2-1-.7l-.1-68.1c0-.5.3-.8 1-.8H242l21.1 39.4-.6-38.6c0-.5.4-.8 1.1-.8H276c.5 0 .8.3.8.8l.1 68.2c0 .4-.2.6-.6.6h-11l-21.6-36.8.9 36c0 .5-.4.8-1.1.8h-12.6z"/></g></svg>