<?xml version="1.0" standalone="no"?>
<!DOCTYPE svg PUBLIC "-//W3C//DTD SVG 20010904//EN"
 "http://www.w3.org/TR/2001/REC-SVG-20010904/DTD/svg10.dtd">
<svg version="1.0" xmlns="http://www.w3.org/2000/svg"
 width="7211.000000pt" height="2759.000000pt" viewBox="0 0 7211.000000 2759.000000"
 preserveAspectRatio="xMidYMid meet">

<g transform="translate(0.000000,2759.000000) scale(0.100000,-0.100000)"
fill="#000000" stroke="none">
<path d="M0 13795 l0 -13795 36055 0 36055 0 0 13795 0 13795 -36055 0 -36055
0 0 -13795z m8627 10417 l-937 -937 0 -10188 c0 -5603 -3 -10187 -7 -10187 -5
0 -470 462 -1035 1027 l-1028 1028 0 4100 0 4100 -1548 -1548 c-851 -851
-1550 -1547 -1555 -1547 -4 0 -7 656 -7 1458 l0 1457 1555 1555 1555 1555 0
2560 0 2560 -1548 -1548 c-851 -851 -1550 -1547 -1555 -1547 -4 0 -7 656 -7
1457 l0 1458 1012 1012 1013 1013 -728 728 c-400 400 -727 730 -727 735 0 4
658 7 1463 7 l1462 0 315 315 315 315 1465 0 1465 0 -938 -938z m3620 -540
c-1087 -1087 -1477 -1483 -1477 -1500 l0 -22 2005 0 2005 0 0 -3205 0 -3205
-1632 2 -1633 3 -3 1063 -2 1062 575 0 575 0 0 1075 0 1075 -945 0 -945 0 0
-4655 0 -4655 945 0 945 0 0 1050 0 1050 -575 0 -575 0 2 1063 3 1062 1633 3
1632 2 0 -3175 0 -3175 -2008 0 -2007 0 -1030 -1030 c-566 -566 -1033 -1030
-1037 -1030 -5 0 -8 3716 -8 8257 l0 8258 1052 1052 1053 1053 1465 0 1465 0
-1478 -1478z m16660 -410 l-1887 -1887 0 -4710 0 -4710 237 -237 238 -238
4327 0 4328 0 2 1178 3 1177 1033 3 1032 2 0 -1582 0 -1583 632 -632 633 -633
-6425 0 -6425 0 -847 847 -848 848 0 5560 0 5560 427 427 428 428 -2483 0
-2482 0 0 -465 0 -465 1545 0 1545 0 0 -6838 0 -6837 -1035 -1035 -1035 -1035
0 6833 0 6832 -510 0 -510 0 0 -7528 0 -7527 -1040 -1040 -1040 -1040 0 8568
0 8567 -500 0 -500 0 0 -6830 c0 -3756 -3 -6830 -8 -6830 -4 0 -471 465 -1037
1033 l-1031 1032 4 6838 4 6837 1534 0 1534 0 0 465 0 465 -2910 0 c-1600 0
-2910 3 -2910 7 0 5 462 470 1027 1035 l1028 1028 7905 0 7905 0 -1888 -1888z
m5408 838 l-1050 -1050 -620 0 -620 0 1050 1050 1050 1050 620 0 620 0 -1050
-1050z m2510 0 l-1050 -1050 -615 0 -615 0 1050 1050 1050 1050 615 0 615 0
-1050 -1050z m2540 0 l-1050 -1050 -625 0 -625 0 1050 1050 1050 1050 625 0
625 0 -1050 -1050z m29310 0 l-1050 -1050 -9705 0 -9705 0 -450 -450 -450
-450 3338 0 c1835 0 3337 -3 3337 -8 0 -4 -281 -288 -625 -632 l-625 -625 0
-5090 0 -5090 637 -637 638 -638 -6505 0 -6505 0 -880 880 -880 880 -3 1340
-4 1340 1041 0 1041 0 0 -902 0 -903 292 -292 293 -293 4382 0 4383 0 0 1710
0 1710 -11315 0 -11315 0 0 1035 0 1035 11315 0 11315 0 0 1550 0 1550 -4438
0 -4437 0 -238 -238 -237 -237 0 -793 0 -792 -1040 0 -1040 0 0 1217 0 1218
852 852 853 853 1720 0 1720 0 450 450 450 450 -2905 0 -2905 0 1050 1050
1050 1050 14075 0 14075 0 -1050 -1050z m-12785 -2820 l0 -1190 4412 0 4412 0
326 325 325 325 1028 0 1027 0 0 -7878 0 -7877 -1030 -1030 -1030 -1030 -1038
1038 -1037 1037 1033 0 1032 0 0 6510 0 6510 -4730 0 -4730 0 0 -4485 c0
-2467 -3 -4485 -7 -4485 -5 0 -470 462 -1035 1027 l-1028 1028 0 4655 0 4655
1027 1027 c566 566 1031 1028 1035 1028 5 0 8 -535 8 -1190z m-16410 862 c0
-4 -283 -291 -630 -637 l-630 -630 0 -1432 0 -1433 -1035 0 -1035 0 0 1030 0
1030 -4055 0 -4055 0 0 402 0 403 637 637 638 638 5082 0 c2796 0 5083 -3
5083 -8z m-12890 -15147 l0 -1475 -325 0 -325 0 0 1175 0 1175 -297 0 -298 0
300 300 300 300 322 0 323 0 0 -1475z m4000 -10 l0 -1475 -435 0 -435 0 -2
839 -3 839 -460 -294 c-253 -161 -466 -291 -474 -289 -8 3 -214 134 -458 290
-243 157 -445 285 -448 285 -3 0 -5 -376 -5 -835 l0 -835 -445 0 -445 0 0
1470 c0 1081 3 1470 11 1470 6 0 411 -261 899 -580 488 -319 892 -580 898
-580 6 0 412 263 904 584 491 322 894 585 896 585 1 1 2 -663 2 -1474z m2304
866 l879 -570 26 18 c54 38 1772 1151 1776 1151 3 0 5 -659 5 -1465 l0 -1465
-440 0 -440 0 0 830 c0 457 -3 830 -6 830 -4 0 -213 -131 -465 -290 l-458
-290 -455 290 c-250 159 -457 290 -460 290 -3 0 -6 -373 -6 -830 l0 -830 -440
0 -440 0 0 1465 0 1465 23 -14 c12 -8 418 -271 901 -585z m3976 -866 l0 -1465
-445 0 -445 0 0 1465 0 1465 445 0 445 0 0 -1465z m1290 220 l0 -1245 752 -2
751 -3 -189 -217 -189 -217 -1007 -1 -1008 0 0 1465 0 1465 445 0 445 0 0
-1245z m5264 1233 c-5 -7 -88 -106 -186 -220 l-179 -208 -1014 0 -1015 0 0
-405 0 -405 1105 0 1105 0 -2 -217 -3 -218 -1102 -3 -1103 -2 0 -400 0 -400
1008 0 1007 0 193 -220 192 -220 -1831 0 -1831 0 31 38 c16 20 100 118 185
217 l155 180 1 1045 0 1046 -170 196 c-93 109 -170 200 -170 203 0 3 817 5
1816 5 1449 0 1814 -3 1808 -12z m3500 0 c-5 -7 -88 -106 -186 -220 l-179
-208 -974 0 -974 0 -90 -102 -91 -103 0 -297 0 -298 1248 -2 1247 -3 3 -618 2
-618 -192 -224 -193 -224 -1321 0 -1322 -1 -183 210 c-101 116 -185 215 -187
220 -2 7 413 10 1175 11 l1178 0 73 86 72 87 0 318 0 318 -1255 0 -1255 0 0
621 0 621 188 219 187 219 1518 0 c1212 0 1517 -3 1511 -12z m3444 -205 l-3
-218 -532 -3 -533 -2 0 -1245 0 -1245 -440 0 -440 0 0 1245 0 1245 -706 0
c-416 0 -704 4 -702 9 2 5 84 104 183 220 l180 210 1498 1 1497 0 -2 -217z
m3732 -1248 l0 -1465 -1307 1 -1308 0 -357 407 -358 406 0 1058 0 1058 1665 0
1665 0 0 -1465z m1614 680 c657 -432 1198 -785 1201 -785 3 0 5 353 5 785 l0
785 435 0 435 0 0 -1465 c0 -806 -2 -1465 -5 -1465 -2 0 -542 358 -1200 794
l-1195 795 0 -795 0 -794 -440 0 -440 0 0 1465 c0 806 2 1465 4 1465 2 0 542
-353 1200 -785z m5578 568 l-188 -218 -1017 -3 -1017 -2 0 -405 0 -405 1105 0
1105 0 0 -220 0 -220 -1105 0 -1105 0 0 -400 0 -400 1008 0 1009 0 124 -142
c68 -79 155 -178 192 -220 l69 -78 -1641 0 -1641 0 0 1465 0 1465 1645 0 1645
0 -188 -217z m1733 -4263 l1030 -1030 -995 0 -995 0 -165 165 -165 165 -19560
0 -19560 0 -165 -165 -165 -165 -995 0 -995 0 1030 1030 1030 1030 19820 0
19820 0 1030 -1030z"/>
<path d="M51660 7263 l0 -748 243 -277 242 -277 538 0 537 -1 0 1025 0 1025
-780 0 -780 0 0 -747z"/>
</g>
</svg>
