<?xml version="1.0" encoding="UTF-8"?>
<!DOCTYPE svg PUBLIC "-//W3C//DTD SVG 1.1//EN" "http://www.w3.org/Graphics/SVG/1.1/DTD/svg11.dtd">
<!-- Creator: CorelDRAW X8 -->
<svg xmlns="http://www.w3.org/2000/svg" xml:space="preserve" width="8in" height="2in" version="1.1" style="shape-rendering:geometricPrecision; text-rendering:geometricPrecision; image-rendering:optimizeQuality; fill-rule:evenodd; clip-rule:evenodd"
viewBox="0 0 8000 2000"
 xmlns:xlink="http://www.w3.org/1999/xlink">
 <defs>
  <style type="text/css">
   <![CDATA[
    .fil1 {fill:#374A57}
    .fil4 {fill:#384B58}
    .fil0 {fill:#A5E0C4}
    .fil2 {fill:#A6E0C6}
    .fil6 {fill:#A8E1C7}
    .fil3 {fill:#A9E1C7}
    .fil5 {fill:#ABE2C9}
    .fil7 {fill:#E7F7F0}
    .fil8 {fill:#E8F7F0}
    .fil10 {fill:#EFF9F3}
    .fil9 {fill:#F1F9F5}
   ]]>
  </style>
 </defs>
 <g id="Capa_x0020_1">
  <metadata id="CorelCorpID_0Corel-Layer"/>
  <g id="_2147397122224">
   <path class="fil0" d="M1215 1507c-17,-4 -13,-4 -17,-15 13,5 12,3 17,15zm224 -64c-12,-3 -24,-3 -28,-15 15,-10 29,-4 28,15zm227 2c5,-22 10,-24 35,-23 -5,4 -11,8 -15,13 -12,10 0,7 -20,10zm-506 -114c-9,-9 -5,-32 -5,-55 0,-88 -9,-90 29,-90 18,0 39,-1 55,2l2 126c0,26 -10,22 -33,22 -15,0 -39,3 -48,-5zm316 -75l-4 -21 20 1c1,16 0,18 -16,20zm599 -27c-7,2 -6,0 -10,-2 1,-16 9,-15 18,-4 -2,2 3,3 -8,6zm-506 -95c-4,-11 -6,-14 0,-25 20,6 12,17 0,25zm539 -15c0,0 -1,0 -1,0l-7 -4 18 -4c3,19 7,32 -16,35 -1,-15 2,-13 8,-26 -1,0 -2,-1 -2,-1zm-408 -14c-5,17 1,13 -17,12 5,-13 3,-10 17,-12zm-91 14c-4,-2 -6,-2 -11,-8 -6,-7 -4,-5 -6,-15l21 -5c4,16 3,14 -4,28zm194 -16c6,-6 13,-11 18,-17 11,-15 0,-14 24,-9 -3,23 -16,34 -42,26zm-88 -50c12,3 13,7 16,16 -14,2 -17,-2 -16,-16zm352 35c-16,3 -18,-1 -21,-14l-9 -26 8 -4 22 44zm-1035 -44c11,8 8,1 8,19 -6,-2 -9,0 -11,-9 -5,-15 3,-10 3,-10zm-6 -4c-16,-5 -16,-2 -11,-18l13 -1 -2 19zm574 -22l8 38c-20,-4 -31,-19 -39,-31 9,-7 17,-6 31,-7zm104 2c6,-7 -11,-14 12,-11 6,1 9,8 9,8 -11,8 -8,6 -21,3zm-610 -20c-6,13 -8,14 -23,13 -9,-24 9,-22 23,-13zm783 -21c2,-4 5,-5 7,-7 6,26 5,15 -6,21 -3,-5 -12,8 -1,-14zm-450 -8c21,1 19,0 23,23 -18,0 -20,-6 -23,-23zm-459 0c1,-15 1,-13 15,-15 -1,14 -1,15 -15,15zm524 -19c-4,18 7,16 -13,13 -5,-1 -11,-7 -12,-9 3,-2 8,-6 13,-6 26,-5 2,-2 12,2zm-397 -11c4,-3 -6,-8 12,-4 11,3 2,1 6,8 -5,3 8,8 -11,3 -12,-3 -3,-1 -7,-7zm97 18c-32,0 -35,4 -37,-18 -6,-71 4,-57 71,-57 102,0 75,2 80,-12 19,1 21,-1 35,-3 6,6 3,4 6,8l5 7c38,0 77,-9 79,12l-12 62c-34,6 -163,-2 -180,3 -14,4 -3,4 -16,8 -17,-9 -3,-10 -31,-10zm558 -70c-23,4 -26,-6 -29,-25 24,4 15,15 29,25zm106 -52c31,12 -2,5 12,19 -15,2 -6,2 -14,-3l2 -16zm101 -48c-18,-6 -8,-1 -13,-14 15,4 10,-6 13,14zm-748 -69c-1,22 2,11 -9,16 -14,-9 -3,1 -8,-12 -10,-27 -15,-8 -9,-33 12,3 18,12 13,26l13 3zm-66 -21c16,2 10,-2 13,15 -11,-6 -12,-3 -13,-15zm177 -53c-14,8 -19,6 -25,-6 9,-9 19,-1 25,6zm150 151c-9,-20 -3,-107 -3,-146 -1,-25 -5,-25 18,-25 28,0 161,-5 177,4 0,19 -36,27 -52,36 -45,26 -67,46 -100,83 -10,10 -29,42 -40,48zm-472 -159c-18,-1 -2,0 -9,-5 1,-7 1,-8 11,-7 16,2 9,5 11,7 -8,5 11,6 -13,5zm1120 -32c10,5 9,4 12,16 -13,-4 -12,-1 -12,-16zm-597 -77c16,-13 39,-29 45,1l-45 -1zm79 -24c15,-10 17,-30 34,2 11,23 -6,10 18,14l-32 10c-6,14 -3,12 -17,18 -2,-10 -1,-1 1,-8 1,-1 1,-2 1,-3l3 -5c-16,-10 -9,-14 -28,-4l1 -34 19 10zm-89 -133c18,2 11,-2 19,9 -13,18 -16,10 -19,-9zm89 -51c-13,-3 -9,0 -12,-13 13,3 8,-6 12,13zm-198 2c-5,15 -5,13 -16,18 -5,-7 -10,-10 -14,-35 13,5 22,12 30,17zm52 -51c6,-5 -5,-12 13,-6 -6,10 -2,8 -13,6zm-54 -25c15,4 13,2 18,12 -5,6 4,3 -10,8 -2,1 -9,1 -11,1l3 -21zm37 -33c-8,20 -19,9 -24,-4 1,-1 11,-3 14,-3 13,3 6,3 10,7zm-48 2c-12,-2 -11,0 -14,-13 19,3 15,0 14,13zm-89 -121l0 8c-12,4 -6,2 -12,7 4,24 19,58 27,83 22,63 24,40 30,54 5,11 0,6 -1,7l-6 6c15,6 9,18 14,38 10,40 27,79 41,119 15,42 13,46 13,94l-5 98c-11,9 -232,4 -277,3 -4,0 -17,0 -19,0l-15 6c-6,10 6,15 11,31l-15 14c-16,-7 -2,-6 -18,-12 -30,-12 -33,1 -54,-39l-83 3c-8,31 -3,847 -3,985 0,15 -6,51 7,60 8,5 312,6 343,2l0 -46 -123 -2c0,-14 -3,-38 4,-47 15,-13 137,-5 166,-5 11,-5 2,1 4,-5l0 -6c34,0 13,3 32,10 15,5 38,-2 51,-1 14,0 42,8 51,-1 16,-32 -9,-187 7,-218 25,-10 139,3 178,-5 10,-42 -42,-294 -37,-333 4,-25 72,-10 73,-9 7,7 2,30 1,40 -8,83 -50,552 -45,579 11,3 28,3 40,4 7,0 17,0 23,1l15 5c-21,9 -67,-2 -82,12l55 9 -56 3c-4,26 -5,31 21,31 105,0 287,6 372,-1l0 -46 -83 -3 -5 -58 -76 0 0 -109 66 0c2,-32 -7,-90 -9,-124l-21 -251c-6,-81 -21,-95 23,-96 7,-14 -2,-7 12,-16 25,9 0,7 19,17 27,0 29,-3 26,26 -8,66 -44,285 -37,319 10,2 191,7 212,1 22,-7 10,-68 10,-91 1,-56 7,-34 -20,-65 4,-2 -2,-1 7,-2 0,0 1,0 2,0 1,0 2,1 2,1 11,1 -1,0 9,3 3,-62 4,-160 -1,-220 -3,-34 -9,-65 -19,-95 -12,-31 -24,-49 -36,-76 -17,1 -2,1 -16,2 3,-14 16,-3 -2,-28 -31,-43 -72,-75 -117,-101 -25,-15 -50,-14 -51,-38l50 -1 7 -16c2,4 3,5 6,9 3,4 3,4 6,7 32,0 159,4 181,-3 14,-53 -10,-145 10,-203 10,-28 52,-138 51,-154 -22,-3 -45,-1 -66,-8l74 -7c-28,-13 -110,0 -131,-16 33,-6 97,-7 136,-5 16,-28 25,-69 37,-101 1,-3 6,-15 6,-17 8,-41 -50,5 -86,25 -49,28 -222,137 -253,144 -38,-38 -128,-234 -161,-259 -13,5 -7,1 -15,13 -25,38 -132,216 -144,244 -23,0 -73,-35 -92,-46 -30,-17 -58,-34 -88,-51l-2 10c0,0 0,1 0,2l-23 -1c10,-8 10,-6 14,-17 -50,-32 -28,-13 -50,-14 -29,0 -37,-43 -90,-67z"/>
   <path class="fil0" d="M4381 1586c16,5 30,13 10,24 -11,-7 -9,-6 -10,-24zm-36 26c-8,-2 -12,-3 -17,-12 -3,-7 -2,-13 4,-17 23,-15 17,19 13,29zm-533 -115c-7,-15 -1,-21 12,-16 0,0 8,-3 0,9 -4,7 -4,5 -12,7zm605 -103c-5,15 -4,9 -8,10 0,-1 -10,1 -1,-8 7,-6 0,-2 9,-2zm-669 -48l12 -1c1,2 5,1 6,12 1,20 -1,8 -4,12 -10,-11 -8,-9 -14,-23zm57 -12c-24,-2 -30,3 -29,-22l38 -5 -9 27zm609 -139c-3,-4 -3,-1 -4,-7 0,-6 1,-7 2,-9 20,-7 21,14 2,16zm-800 -275c-10,0 -5,-3 -8,-10 6,-5 9,-2 16,0 -3,7 -1,10 -8,10zm891 -207c16,0 17,-1 18,14 -14,1 -15,-1 -18,-14zm-922 -166c33,-30 32,7 39,30 -15,-4 -33,-16 -39,-30zm-64 -52l1 890 90 1c6,75 -5,159 0,233 4,45 180,146 337,86 99,-39 111,-82 139,-99 34,29 36,47 88,77 35,20 79,37 126,39 -3,-9 -6,-13 -2,-23 7,16 10,24 31,25 15,1 40,-3 54,-6 25,-5 64,-16 79,-31 -8,-4 -21,-10 -30,-12 -6,-1 -32,-5 -36,-4 34,-4 109,9 123,-24 -88,-3 -39,-2 -96,-12 -10,-2 0,6 -10,-6 108,-3 144,22 187,-94 67,-7 200,-1 278,-1 36,0 25,-7 25,-132l-1 -17 -87 0 -2 -168c-34,-1 -184,5 -209,-1l-9 -4c-12,-5 -7,-122 -2,-129 11,-12 83,-5 98,-5 58,0 89,11 89,-19l0 -187c0,-25 -8,-21 -31,-21l-107 0c-9,0 -19,1 -27,1 -29,-1 -25,-13 -25,-40 0,-15 -3,-29 5,-36 13,-14 150,1 182,-8 9,-51 3,-210 3,-273 0,-21 -4,-19 -24,-19l-678 0c-13,0 -9,-1 -20,4 -4,33 10,23 74,27 26,1 50,2 77,7 -1,-1 -60,5 -74,5 -24,1 -50,3 -77,2 5,4 1,2 9,4 31,8 66,3 98,7 -22,12 -78,5 -108,8l-1 50c61,9 45,4 95,-7 34,-6 79,-12 107,-9 18,2 33,-3 54,-1 11,1 18,1 28,3 45,9 84,5 131,6 -8,8 -8,3 -22,7 -37,8 1,9 -67,11 -50,1 -97,-18 -148,-14l-52 7c-91,23 -90,16 -88,46 18,-1 25,-9 42,-12l76 -10c33,-1 13,-3 50,-1 10,1 18,-2 26,-2 37,-3 63,8 96,9 14,0 78,-4 88,6 -22,4 -15,0 -41,9 -16,6 -39,3 -56,3 -48,2 -112,-21 -171,-13l-103 28c-8,4 -9,4 -9,15l1 99c40,1 249,-3 267,3 7,16 6,58 1,73l-16 5c-46,6 -209,-3 -271,0 -16,1 -18,5 -18,21l0 187c0,29 31,19 60,19 32,0 213,-5 236,1 19,5 11,35 11,53 -107,4 -146,2 -233,71 -72,57 -81,120 -103,204l-189 0c-11,-80 -1,-154 -1,-234l0 -659c0,-25 6,-38 -21,-38l-275 0c-18,0 -22,1 -22,19z"/>
   <path class="fil1" d="M3105 1656l-1 -11c11,-6 10,-5 25,-2 -8,9 -7,16 -24,13zm181 -119c16,4 15,11 17,28 -9,-4 -27,-14 -17,-28zm-742 -93c-14,-3 -4,3 -10,-10 12,6 6,-4 10,10zm31 -46c-6,6 -8,0 -8,0 -1,0 -10,2 -1,-8 7,-8 9,-1 10,-1 0,1 11,-4 -1,9zm28 -219c-12,-2 -2,4 -8,-9 12,7 8,-4 8,9zm-329 -6c2,-13 10,-8 19,-4 -1,2 1,6 -9,8 -17,5 -8,-2 -10,-4zm574 -72c12,3 19,6 20,19 2,17 -4,18 -16,19 -8,-13 -9,-22 -4,-38zm-278 -61c3,-1 0,-2 6,-1 4,1 5,4 5,5 -23,4 -5,2 -11,-4zm-92 -5c-11,1 -6,3 -10,-6 9,2 6,0 10,6zm-30 -47c-2,15 4,5 -10,11 4,-12 0,-7 10,-11zm873 -21c-5,-12 -3,-11 2,-24l13 9c-5,12 -3,11 -15,15zm-982 -178c-15,0 -6,3 -10,-8 12,4 5,-4 10,8zm878 -27c4,-2 -9,-5 12,-4 15,1 3,-1 10,5 -10,9 -11,5 -22,-1zm-852 -7c5,-12 5,-10 15,-19l0 21 -15 -2zm616 8l-3 -11c22,-2 11,-4 16,7 6,13 8,13 21,6l10 -9c5,-7 0,0 2,-10l20 2 6 18c14,-10 2,-8 22,-13 3,6 5,7 9,13 11,18 -2,8 9,15l7 -17 34 9c18,-11 -7,-6 19,-15 6,-1 20,-4 27,-4 7,8 16,18 26,24 19,12 18,-9 16,21 32,-5 5,-3 27,5 10,-11 12,-7 20,-14 7,-5 9,-14 13,-20 48,7 23,-4 42,1 18,4 -1,14 -6,21 17,28 5,21 8,38 0,6 3,1 2,17 -21,-4 -30,-5 -51,-9 1,30 0,47 -3,76 -13,9 -2,1 -10,4 -3,1 -11,5 -11,5l-12 3c-63,12 -30,15 -49,18 -11,-27 -2,-10 4,-33l-42 -11c-1,79 -16,59 93,69 -16,2 -84,5 -92,10 9,9 30,7 53,10l-54 6 -1 440c-2,8 -1,5 -4,9 -14,7 -535,6 -548,0 -5,-13 -5,-90 0,-103 18,-8 266,-3 308,-3 55,0 93,-4 126,-32 69,-58 60,-163 -3,-210 -40,-29 -68,-30 -126,-30l-271 0c-28,1 -26,2 -32,-5 -9,-10 -9,-204 -2,-222l5 -4c13,-5 34,-2 48,-2l274 0c39,0 74,7 88,-18 -14,-8 -29,-8 -48,-9 -5,-7 -14,-16 -13,-29 1,-20 11,-15 26,-14zm-556 -12c6,-4 -2,-4 9,-4 17,-1 0,-2 8,6l-17 -2zm717 -35c11,9 7,6 19,12 -6,13 -4,13 -19,16 -41,9 -24,-12 -61,-22 8,-28 40,-22 61,-6zm-765 -16l3 -7c2,3 3,-3 2,5 -1,6 -1,1 -5,2zm847 -27c2,15 1,6 -10,9l2 -21c2,2 7,6 8,12zm-862 -14c-3,14 3,9 -12,11 3,-13 -2,-8 12,-11zm1044 -26l8 -2c0,-1 1,1 2,2 -16,10 -5,2 -10,0zm-725 -351c1,0 2,-2 2,-2 1,0 2,0 3,0 0,0 2,1 2,0 0,-1 2,2 2,2 -3,2 6,11 -9,0zm107 96l-28 -4c7,-7 -12,-4 12,-6 1,0 17,2 19,2l44 -2c-36,-19 -21,-26 -75,-33 1,-1 2,-1 3,-1l18 -7c-42,-20 -96,-86 -129,-119 -18,-19 -48,-77 -63,-88 2,64 23,36 21,82l-12 4c4,61 27,134 47,184 61,147 163,164 174,173 12,10 8,32 -9,34 -33,4 -139,-71 -163,-121l-98 2 0 33 -222 0c-6,86 0,190 0,278 0,31 5,263 -5,273 -20,15 -72,0 -100,6 -6,18 -6,248 0,268 24,6 85,-6 100,6 7,8 4,2 5,18l0 138c46,-16 69,-19 118,-22 18,-1 8,-2 20,-4 18,-2 18,5 44,2 36,-5 64,6 94,7 36,0 72,0 108,2 -58,13 -45,15 -95,17 -52,1 -142,-29 -197,-9 -19,7 -69,20 -93,24l1 23c14,-5 24,-11 42,-14 80,-13 78,-7 148,-12 17,-1 39,0 54,4 34,8 98,3 142,6 -25,-2 -66,33 -145,13 -17,-5 -34,-7 -51,-8 -125,-9 -93,12 -190,27l0 54 57 1c-10,3 -15,7 -27,8 -18,2 -21,-3 -30,6 8,9 4,4 19,5 7,0 7,-1 15,1 10,3 3,0 10,6l-44 1c0,49 -20,43 95,43l864 0c172,0 143,29 140,-137l-76 0 0 -108 74 -1c9,-46 2,-181 2,-237 0,-97 5,-704 -4,-714 -5,-5 -1,-3 -10,-5 -3,-1 -9,-1 -11,-1 -7,0 -16,0 -23,0 -15,0 -31,0 -46,0 -30,0 -61,0 -91,0 -59,0 -125,7 -178,-9 -49,-14 -93,-29 -136,-50 -17,-8 -50,-28 -67,-29 -37,-5 -37,6 -72,-10z"/>
   <path class="fil0" d="M503 1541c17,14 5,11 4,14 -9,-4 -6,6 -7,-5 -2,-16 -2,-3 3,-9zm171 -220c13,7 12,15 13,31l-21 -1c-2,-13 -2,-22 8,-30zm119 20c-2,-24 -7,-7 7,-14 2,4 8,-6 2,8 -5,9 0,5 -9,6zm-101 -6c6,-14 4,-13 22,-18 -4,14 -6,16 -22,18zm-143 -29c15,-2 20,-3 30,4 -11,12 -20,9 -30,-4zm240 6c-14,-6 -23,-6 -23,-24 14,-5 25,-5 43,-4 8,-12 3,-7 15,-12 -4,22 -19,30 -35,40zm-34 -43c17,-3 13,-4 14,11 -11,-3 -7,-2 -14,-11zm-600 -21c-1,-8 4,-18 9,-25 4,5 10,4 3,17 -3,7 -6,6 -12,8zm428 1l-8 -10c8,-10 5,-7 20,-11 -3,13 -1,13 -12,21zm-113 -23l5 -26c30,5 42,13 42,36 -11,-3 -12,-7 -21,-10 -20,-8 -11,1 -26,0zm132 -19c7,4 2,-6 9,7 5,8 2,2 3,13 -11,-4 -21,-7 -12,-20zm-103 -49c-14,-11 -5,-9 -13,-21l24 0c-1,5 -1,7 -4,12 -3,8 -2,5 -7,9zm-62 -86c-17,4 -22,0 -24,-16 18,-4 19,0 24,16zm-4 -30c8,-13 -1,-2 11,-6l2 20 -17 -1c1,-6 -1,-6 4,-13zm-199 19c-16,-3 -11,0 -19,-10 2,-2 6,-4 11,-1 14,6 3,-1 8,11zm551 -52c16,-1 19,4 22,19 -19,0 -22,0 -22,-19zm-53 7c10,10 -4,9 -9,9 1,-5 0,-17 9,-9zm87 -41c-4,-17 -5,-14 8,-19 6,12 4,14 -8,19zm-423 -42c0,-1 -7,2 -5,-11 3,-11 5,-6 11,-10 3,16 5,14 -6,21zm-57 -11c-6,12 0,9 -13,4 5,-3 -1,-11 13,-4zm151 -61c-8,5 2,4 -9,3 -16,0 -2,1 -7,-3 2,-9 15,-9 23,-2 4,4 7,8 8,13 1,21 -3,9 -6,13 -6,-3 -9,7 -9,-24zm-10 -220c6,5 4,2 7,11 -9,4 -3,5 -16,-1l9 -10zm90 -113c16,-8 23,-18 36,-25 23,32 -6,48 -7,48 0,-1 -1,1 -2,2 5,13 11,25 13,42 -20,-4 -20,-8 -27,-27 -6,-14 -11,-22 -13,-40zm278 -7c1,15 5,7 -13,11 3,-10 -2,-3 6,-11 10,-11 5,0 7,0zm-122 -12c2,-16 2,-11 15,-14 -4,11 -4,13 -15,14zm54 -5c3,-15 -2,-7 10,-13 4,16 2,11 -10,13zm-320 -35c3,-2 1,-3 8,-3 1,0 3,2 3,1 1,-1 2,1 3,2 -2,1 8,16 -14,0zm252 18c-15,3 -51,-20 -53,-22 29,-11 3,12 43,0l9 -2 1 24zm126 -26c-8,-11 0,-11 0,-11 15,-7 19,3 27,32l-19 6 8 -18c-8,-3 -12,-2 -16,-9zm-518 -80c13,-7 28,-9 39,4 -13,10 -28,4 -39,-4zm-7 -3c-8,-12 -7,-10 0,-19 6,3 9,-5 7,10 -1,10 -7,8 -7,9zm505 -30c3,-10 0,-4 6,-11l18 -21c7,3 2,0 7,4 20,14 26,29 29,55 -29,-5 -16,-9 -26,-34 -23,-1 -5,8 -34,7zm-410 -12c4,-11 1,-6 14,-17 8,-7 8,-9 20,-10 -2,13 -7,29 -15,37l-19 -10zm496 -24c10,10 14,5 17,20l-18 -7 -12 16c-6,-11 -4,-14 -7,-28 -4,-16 -8,-10 1,-22 16,4 6,7 19,21zm-160 -34c-7,5 -15,4 -20,11 -2,2 -9,20 -11,25 -6,16 -12,27 -21,43 -8,17 -15,28 -22,43l-6 12c-12,28 9,18 -23,43 -14,11 -3,9 -20,14 -13,-12 -8,-20 -23,-28 0,1 -1,1 -1,3 -1,1 -2,2 -2,2l-6 10c0,1 -1,2 -2,2l-5 8c10,6 16,7 16,24l-26 -8c6,-22 7,-11 8,-36 2,-30 4,-11 10,-31l-44 -86 -39 6c-1,-12 -1,-25 7,-33 1,2 2,8 2,8l6 12c20,-8 16,-14 6,-30 -4,-8 -16,-32 -21,-37 -16,0 -20,5 -34,12 -11,6 -22,12 -34,16 2,13 5,7 3,14 -33,-6 -51,12 -90,32 -22,11 -68,30 -84,44 3,24 95,194 112,230 46,94 33,86 81,91 31,3 24,5 68,7 21,1 52,0 80,1 -14,4 -12,4 -26,6 -22,3 -13,5 -29,9 -26,8 -67,1 -93,-4 -10,-2 -24,-5 -33,-6 -15,-1 -25,7 -36,17 -6,6 -5,2 -8,11 24,1 35,-3 59,-1 24,2 38,6 57,7 25,0 91,-3 108,2 -15,5 -15,3 -29,6 -13,3 -17,8 -29,10 -56,12 -141,-25 -185,-13 -17,5 -81,45 -104,56 -39,19 -74,28 -115,45l0 68 -71 1c1,32 59,324 70,341 14,0 48,-11 60,-21 9,-7 0,3 4,-5 2,-4 0,-6 1,-8 12,2 16,4 29,-2 -4,-25 2,-59 20,-71l5 34c-6,20 -10,1 -14,29 64,-20 156,-96 210,-136 23,-17 42,-38 63,-51l-21 -13c1,0 3,-2 3,-1 0,1 2,0 3,-1 9,0 11,3 22,6l21 -20c-13,-12 -13,-6 -12,-32l18 -9 -23 -12c18,-48 3,-57 34,-46 -6,13 -13,14 -13,29 22,4 18,-12 34,10 -10,5 -4,-9 -17,8 -22,32 2,39 15,65 6,14 16,25 15,41l-86 53c3,14 8,13 11,26 1,0 1,1 1,2l-2 7c-12,-6 -10,-17 -10,-33 -34,11 -72,45 -105,58 0,23 42,86 53,108l28 -6 -4 26 17 -1c1,0 2,0 3,0l-16 8c34,32 -1,20 18,54 8,14 21,39 31,48 27,-4 38,-44 64,-54l14 1c4,26 2,53 2,80l-195 0c3,57 17,104 51,141 23,25 38,48 73,64 93,44 181,35 252,-20 84,-66 91,-139 91,-238l0 -350c0,-25 -94,-199 -112,-233 -27,-52 -21,-35 47,-135 0,-1 1,-2 1,-2l17 -22c12,-18 24,-35 34,-54 -10,-6 -16,0 -4,-31 5,-13 16,-20 25,-32 12,4 -1,1 13,7 9,-27 32,-66 46,-96l32 -75c5,-19 2,-13 -6,-28 -20,-3 -28,7 -37,-11 20,-14 37,3 54,9l11 -39c-20,-12 -153,-45 -187,-55l-6 14c-9,-6 -27,-11 -33,-18 -7,-7 12,-1 -11,-10 -7,-2 -14,-3 -22,-3 -6,11 -18,35 -19,49 -2,20 -4,1 8,18z"/>
   <path class="fil0" d="M6525 1658c1,-7 2,-15 5,-21 8,-19 0,-8 13,-11 6,17 -4,26 -18,32zm-92 -28c13,-13 18,-4 30,3 -7,6 12,8 -15,4 -5,-1 -12,-4 -15,-7zm-170 -81c1,1 2,1 3,2 23,19 21,22 22,35 -23,-5 -28,-11 -25,-37zm133 8c-14,4 -8,4 -20,-3 -6,-17 1,-19 2,-21 1,1 2,2 2,3 20,37 4,0 16,21zm10 -68c11,31 -9,27 -9,27 -4,-12 -13,-43 -12,-54 6,2 12,1 21,27zm-111 -12c22,-21 16,-11 14,-46l34 16c-2,7 -15,29 -21,36l-25 28 -2 -34zm784 -83c15,-6 13,-1 19,-11l7 16c2,11 -10,31 -26,-5zm-733 5c26,33 28,19 25,41 -21,6 -17,-8 -45,-20 -22,-10 -32,-8 -37,-35 11,-5 20,-10 37,-10l20 24zm809 -13c26,-10 46,-13 39,25 -23,10 -35,2 -39,-25zm-514 15l-8 -23c19,2 18,1 28,9 -9,8 -8,9 -20,14zm-236 -29c-12,-4 -3,-1 -8,-5l32 -9c-1,6 3,24 -24,14zm637 8c-24,4 -27,-4 -33,-28 20,2 29,7 33,28zm-543 -25c-4,-1 -29,-8 -27,-23 10,-5 10,-4 22,-3l5 26zm-119 -5c-4,-21 0,-52 4,-71 28,5 17,18 12,30 -10,25 8,29 -16,41zm481 -62c7,-6 -12,-5 12,-6 19,0 9,3 12,6 0,0 1,15 -24,0zm-282 -20c12,4 11,2 11,15 -17,2 -14,0 -11,-15zm-170 0c3,-11 7,-14 19,-20 0,17 3,12 -8,25l-11 -5zm-20 -287c9,-1 8,-1 12,11l-14 1c-5,-20 -1,-7 2,-12zm-34 -215c6,-6 -3,-3 7,-4 17,-2 -2,-2 6,4 -5,3 0,2 -8,3 -12,1 2,2 -5,-3zm1286 -90c-17,-4 -7,4 -11,-11 14,7 4,-5 11,11zm20 -9c15,-8 9,-3 14,6 -17,1 -9,2 -14,-6zm14 -75c21,-20 34,-16 68,-19 -6,0 -19,-7 -28,-9 -12,-4 -29,-3 -33,-4 0,0 -8,-4 -16,-5 -3,-1 -13,-2 -16,-2 -139,-9 -149,89 -167,110 -16,19 -73,33 -87,155 -12,104 -20,171 -65,254 -150,275 -524,223 -665,99 -30,-26 -54,-49 -77,-83 -30,-48 -38,-53 -38,-120 0,-108 1,-215 0,-322 -17,0 -26,-3 -42,2 -4,1 -12,4 -19,6 -162,44 -105,22 -215,8l0 272 -41 1 0 678 19 8 -6 43c-9,-2 -1,2 -7,-6 -3,-2 -4,-6 -5,-8 -3,42 18,29 59,29l183 0c29,-2 7,-12 34,-3 3,1 -1,1 9,3 8,1 25,3 28,-5 0,-1 1,-2 1,-3l2 -18c1,-7 0,-15 0,-23 0,-15 0,-30 0,-45 0,-37 -5,-57 14,-79 28,-5 37,11 55,23 118,71 322,92 446,47 137,-49 246,-182 303,-318 33,-81 51,-158 61,-252 5,-57 -2,-312 81,-303 58,6 32,69 105,127 61,48 118,43 186,45 27,1 41,8 64,12 -11,-10 -17,-14 -21,-29 39,9 45,6 80,-4l-28 -9c-39,-12 -36,-55 -51,-108 -14,-51 -14,-33 -22,-42 -14,-14 10,-28 -51,-71 -33,-23 -53,-26 -98,-32z"/>
   <path class="fil1" d="M5403 1554c0,-6 7,-4 6,1 0,0 -1,1 -1,1 -12,3 -5,8 -5,-2zm-53 -15c4,3 9,-2 4,11 -7,-3 -11,-1 -4,-11zm-18 -57c4,2 16,-7 3,10l-3 -10zm-188 -158c3,2 9,0 8,9 -1,9 -4,6 -12,8 -4,-12 -7,-10 4,-17zm275 -33c7,-6 -10,-4 4,-3 8,1 3,-1 7,3 -14,9 -10,1 -11,0zm-169 -193c12,5 6,-1 9,10 -20,-5 3,0 -9,-10zm-83 -8c7,11 7,7 -3,13 -6,-7 -12,-7 3,-13zm216 -51c2,-15 -6,-10 8,-16 10,-5 13,7 13,7l-21 9zm-35 -28c13,3 13,4 17,14 -10,5 -5,5 -15,0 -4,-7 -6,1 -2,-14zm-409 -78c10,-5 6,-6 12,4 -3,2 5,7 -7,2 -15,-6 12,8 -5,-6zm191 -311c15,7 8,2 8,15 -4,-4 -2,1 -6,-7 -2,-4 -1,-4 -2,-8zm4 -25c-11,-3 -15,-2 -9,-14 11,5 7,-5 9,14zm19 -33c0,0 3,-7 6,1 4,15 -5,4 -6,-1zm279 956l12 1c-1,-1 -3,-3 -3,-2 -1,1 -7,-4 -10,-18l14 2c-6,-68 1,-352 -1,-467l2 -22c2,-8 0,-4 3,-8 30,-16 219,9 256,-7 10,-20 5,-87 3,-115 -43,9 -85,19 -125,3 -4,-2 -37,-9 -40,-9l125 -4c16,-4 20,-3 40,-6l1 -23c-59,10 -22,9 -89,10 -29,0 -47,-12 -78,-15 30,-3 61,-3 90,-3 30,0 43,-5 75,-8l1 -51c-48,-12 -234,9 -257,-5 -13,-11 -6,-53 -6,-68 0,-37 4,-215 -4,-224 -10,-7 -19,-5 -34,-5l-274 0c-6,7 0,-1 -4,8 -2,6 3,1 -4,11 -22,-8 -7,-17 -34,-19 -28,-2 -50,-4 -53,12l-1 137c0,29 6,129 -4,148 -29,11 -126,-3 -166,5 -5,23 -5,204 1,222 28,7 114,0 147,2 16,1 10,-2 18,5 13,16 3,309 5,357l58 0 1 214c23,5 211,2 261,2 87,0 87,16 86,-48 -20,8 -25,-2 -58,-6l46 -6z"/>
   <path class="fil1" d="M6078 1189c5,-5 -2,-3 7,-3 17,-2 -4,-3 5,3 -4,2 1,11 -12,0zm-29 -10c-7,10 -5,14 -14,2 4,-3 1,-2 8,-3 0,0 4,1 6,1zm-228 -57c-15,-5 -7,2 -9,-9 9,3 4,-2 9,9zm-72 -58c-53,3 -153,-6 -197,3 -1,9 -5,184 -1,209l2 10c5,15 283,-1 340,7 0,8 0,17 0,25l6 23c14,6 204,6 216,0 1,-1 1,-3 1,-3 4,12 4,-66 4,-73 0,-28 0,-56 0,-84 -4,-15 -7,0 -22,-19 8,-6 18,-6 21,-7l-60 -1 0 -78 37 -1 0 -45 -346 -1 -1 35z"/>
   <path class="fil1" d="M5847 1588c10,-10 5,-2 9,1 -5,2 -4,5 -9,-1zm-227 -25c12,6 13,2 4,14 -4,-3 -14,-2 -4,-14zm154 -1l-5 2c-11,-1 1,4 -7,-3 18,-14 11,0 12,1zm233 -42c-1,-16 -2,-10 12,-11 -4,14 -1,8 -12,11zm1 -33c-17,-6 -14,-5 -25,-15 20,-1 20,-2 25,15zm-212 -55c-10,-4 -12,3 -8,-12 7,3 6,-11 8,12zm182 -38c-11,7 -1,-2 -3,10 -1,3 4,5 -6,8 -14,3 -9,-3 -12,-7 -12,-14 8,-3 -9,-11l-397 0c-1,26 3,49 9,72l21 52c1,-1 2,1 2,2 36,11 88,-4 119,11l-32 5c-27,2 -66,-3 -79,8l75 6c4,8 -2,13 -4,15 -16,-21 -7,-6 -60,-10 19,39 77,83 127,104 188,78 400,-75 390,-264l-141 -1z"/>
   <path class="fil0" d="M1118 520c2,12 4,9 -9,10 1,-18 3,-10 9,-10zm88 -53l114 0c28,-73 -28,-147 -75,-165 -5,-3 -6,-2 -11,-4 -1,0 -2,-1 -3,-1l-35 -9c-55,-4 -103,21 -131,65 -59,96 8,214 116,218 35,1 26,-5 25,-104z"/>
   <path class="fil0" d="M6332 565c7,10 7,6 0,17 -14,-6 -13,-10 0,-17zm-57 38c30,10 118,21 147,12 34,-10 31,-11 74,-16 31,-5 61,5 55,-24 -2,-12 1,-6 -34,-13 17,-1 22,1 34,-6 -7,-13 8,-2 -35,-9 -13,-2 -30,-1 -48,-3 20,-9 57,-6 81,-8 7,-26 1,-50 0,-51 0,-1 -1,-2 -1,-3 -5,-15 -242,-7 -272,-5l-1 126z"/>
   <path class="fil1" d="M4250 1953c-30,-11 -34,-80 0,-93 30,16 28,81 0,93zm-25 -162l-66 0c3,18 7,16 7,41l0 99c0,25 -5,23 -7,42 9,0 25,1 33,-1 14,-3 5,-5 20,-10 45,33 110,11 118,-43 10,-64 -43,-92 -103,-79l-2 -49z"/>
   <path class="fil1" d="M3391 1796c1,17 6,17 6,40 1,49 3,98 -8,142l76 -1c-6,-26 -25,-113 15,-111 39,2 19,91 14,112l76 0c-7,-29 -8,-24 -8,-58 1,-63 -18,-95 -105,-71l-2 -53 -64 0z"/>
   <path class="fil1" d="M2940 1849c-7,-10 -4,-32 -4,-52l-66 1c11,34 8,52 8,91 0,67 4,33 -8,89l76 0c-5,-20 -24,-110 13,-112 43,-2 22,87 16,112l76 0c-6,-28 -8,-24 -8,-58 0,-21 1,-42 -9,-56 -18,-23 -60,-30 -94,-15z"/>
   <path class="fil1" d="M4868 1845c-1,16 4,13 6,29l0 76c-2,14 -5,14 -8,28l75 0c-5,-23 -26,-121 20,-112 34,7 16,86 10,112l76 0c-8,-31 -8,-29 -8,-66 0,-25 -1,-41 -15,-54 -30,-26 -75,-22 -105,-1 -25,-14 -10,-12 -51,-12z"/>
   <path class="fil1" d="M4770 1902c1,8 3,30 1,37 -3,15 -15,17 -25,6 -16,-20 7,-38 24,-43zm-47 -11c4,-47 42,-46 48,-12l-48 12zm-37 1l25 5c-1,0 -2,1 -2,2 -9,6 -20,12 -26,24 -19,38 16,78 104,39 22,13 14,13 52,10 -3,-13 -6,-13 -8,-29 -6,-82 29,-122 -146,-102l1 51z"/>
   <path class="fil1" d="M3946 1863c34,-28 49,67 22,88 -32,24 -60,-56 -22,-88zm-76 53c13,90 184,79 170,-19 -13,-91 -183,-76 -170,19z"/>
   <path class="fil1" d="M4429 1862c35,-24 50,76 17,91 -34,15 -51,-67 -17,-91zm92 61c14,-45 -26,-79 -64,-86 -47,-9 -92,17 -102,51 -28,94 139,126 166,35z"/>
   <path class="fil1" d="M2751 1863c6,-10 19,-8 27,-2 8,6 10,18 12,29l34 -3 -1 -45c-28,-7 -115,-19 -129,23 -18,56 64,51 73,84 -25,22 -39,1 -44,-25l-33 1 0 46c35,7 120,18 135,-22 19,-54 -66,-56 -74,-86z"/>
   <path class="fil1" d="M3271 1859c4,-3 31,-15 38,31l33 -2 0 -46c-15,-3 -65,-8 -79,-7 -24,2 -43,13 -50,31 -17,54 67,52 73,85 -29,18 -37,-2 -45,-27l-31 0 0 49c45,1 120,19 135,-26 11,-34 -31,-53 -56,-65 -14,-6 -18,-5 -18,-23z"/>
   <path class="fil2" d="M4679 328c16,25 8,13 0,42 -2,9 1,9 -3,19 -19,-8 -17,-25 -16,-37 0,-9 1,-10 -4,-17 -8,24 -7,34 -21,58 -14,26 -7,37 9,55 25,26 32,9 56,3 38,-10 26,7 52,-31 7,8 3,13 21,6 21,-10 18,-52 -8,-69 -36,-26 -18,-22 -35,-34 -17,-12 -33,1 -51,5z"/>
   <path class="fil1" d="M5244 1913c-6,-22 -29,-57 -6,-90l18 -21c-58,-8 -83,26 -103,57 -17,26 -41,78 -46,115l137 -61z"/>
   <path class="fil1" d="M2482 1802c5,8 3,4 9,11 36,39 12,66 4,99l136 60c-5,-34 -30,-88 -46,-113 -20,-31 -46,-65 -103,-57z"/>
   <path class="fil1" d="M4545 1843c-1,23 3,13 8,25 7,18 -5,67 6,88 13,25 68,30 93,9l-3 -15c-30,-1 -34,10 -34,-26 0,-20 -1,-41 1,-60 31,-2 28,2 30,-9 5,-20 -21,-15 -31,-15l0 -35c-33,1 -20,5 -36,22 -11,13 -21,8 -34,16z"/>
   <path class="fil0" d="M4882 495c-13,5 -8,5 -17,15 -13,15 -41,25 -35,56 4,21 19,14 36,25 22,14 14,6 48,17 22,7 32,-6 40,-17 15,-20 5,-27 -4,-45 -9,-17 -7,-35 -20,-42 -9,-4 -40,-13 -48,-9z"/>
   <path class="fil1" d="M3734 1846c0,12 4,14 6,28 1,10 0,24 0,34 0,59 3,23 -7,70l75 -1c-7,-29 -15,-71 -5,-106l46 14 -1 -43c-27,-6 -45,3 -63,14 -23,-14 -18,-12 -51,-10z"/>
   <path class="fil1" d="M3680 1845l-65 0c0,14 17,47 -2,133l76 0c-7,-30 -8,-31 -8,-66 0,-20 2,-46 -1,-67z"/>
   <path class="fil1" d="M3162 1845l-68 0c10,49 13,83 0,133l76 0c-13,-48 -7,-76 -8,-133z"/>
   <path class="fil3" d="M6274 623c1,38 26,22 55,29 38,8 68,13 105,-2 40,-15 82,-8 117,-20l1 -23c-47,-3 -79,12 -132,25 -78,19 -78,-1 -146,-9z"/>
   <path class="fil1" d="M3100 1821c5,27 71,26 64,-11 -7,-29 -70,-26 -64,11z"/>
   <path class="fil4" d="M3619 1821c6,28 71,25 64,-11 -7,-32 -70,-23 -64,11z"/>
   <path class="fil2" d="M4733 301c11,-21 1,-48 -15,-58 -41,12 -35,81 15,58z"/>
   <path class="fil2" d="M4769 276c-6,7 -16,25 -17,37 -2,18 8,30 26,27 26,-6 23,-62 -9,-64z"/>
   <path class="fil2" d="M4579 335c-3,11 -2,24 5,36 7,13 13,12 32,13 7,-11 17,-27 5,-39l-42 -10z"/>
   <path class="fil5" d="M4665 290c-1,1 -1,1 -1,3l-7 14c-11,-3 -19,-15 -21,-29l6 -1c0,0 2,-1 2,-1l10 -1c-5,-11 -3,-10 -16,-13 -19,12 -21,51 -7,62 19,17 49,-5 34,-34z"/>
   <path class="fil4" d="M5153 1828l-11 -23c-4,-6 -3,-4 -5,-7 -18,19 -35,50 -14,80l30 -50z"/>
   <path class="fil4" d="M2616 1878c21,-31 -3,-64 -14,-81l-18 32 32 49z"/>
   <path class="fil2" d="M4886 431c-16,9 -32,57 7,50 29,-5 17,-45 -7,-50z"/>
   <path class="fil3" d="M4955 500c13,-15 15,-38 -1,-53 -29,3 -42,60 1,53z"/>
   <path class="fil2" d="M4827 508c44,13 34,-33 17,-50 -13,2 -15,2 -19,15 -4,13 -1,25 2,35z"/>
   <path class="fil6" d="M4989 506c-14,4 -24,6 -27,17 -5,15 5,26 18,25 21,-2 36,-50 9,-42z"/>
   <path class="fil7" d="M6332 582c7,-11 7,-7 0,-17 -13,7 -14,11 0,17z"/>
   <path class="fil8" d="M7661 667c5,8 -3,7 14,6 -5,-9 1,-14 -14,-6z"/>
   <path class="fil9" d="M7641 676c-7,-16 3,-4 -11,-11 4,15 -6,7 11,11z"/>
   <path class="fil10" d="M6355 766c7,5 -7,4 5,3 8,-1 3,0 8,-3 -8,-6 11,-6 -6,-4 -10,1 -1,-2 -7,4z"/>
  </g>
 </g>
</svg>
